<?xml version="1.0" encoding="utf-8"?>
<!-- Generator: Adobe Illustrator 27.9.0, SVG Export Plug-In . SVG Version: 6.00 Build 0)  -->
<svg version="1.1" id="Layer_2_00000009587524487512998290000015998500449598291343_"
	 xmlns="http://www.w3.org/2000/svg" xmlns:xlink="http://www.w3.org/1999/xlink" x="0px" y="0px" viewBox="0 0 680.5 680.4"
	 style="enable-background:new 0 0 680.5 680.4;" xml:space="preserve">
<style type="text/css">
	.st0{fill:url(#SVGID_1_);}
	.st1{fill:url(#SVGID_00000063634908672705396600000005746423170098194313_);}
	.st2{fill:url(#SVGID_00000040535130807837068290000010141633409297204153_);}
	.st3{fill:url(#SVGID_00000031895468641932006470000017940453896740721845_);}
</style>
<g id="_Слой_1">
	<g>
		
			<linearGradient id="SVGID_1_" gradientUnits="userSpaceOnUse" x1="200.79" y1="341.77" x2="200.79" y2="682" gradientTransform="matrix(1 0 0 -1 0 682)">
			<stop  offset="0" style="stop-color:#212121"/>
			<stop  offset="1" style="stop-color:#525252"/>
		</linearGradient>
		<path class="st0" d="M401.6,0c0,78.3-22.5,151.3-61.4,213.1c-32.2,51.4-75.8,94.9-127.2,127.2C151.3,301.3,78.2,278.9,0,278.9
			c143.8,0,262.6-109.4,277.3-249.4c1.8-16.8,16-29.5,32.9-29.5H401.6L401.6,0z"/>
		
			<linearGradient id="SVGID_00000080920475964424866120000012865063346467146906_" gradientUnits="userSpaceOnUse" x1="340.22" y1="481.25" x2="680.46" y2="481.25" gradientTransform="matrix(1 0 0 -1 0 682)">
			<stop  offset="0" style="stop-color:#000000"/>
			<stop  offset="1" style="stop-color:#8F8F8F"/>
		</linearGradient>
		<path style="fill:url(#SVGID_00000080920475964424866120000012865063346467146906_);" d="M680.5,310.2c0-16.9-12.7-31.1-29.5-32.9
			C511,262.6,401.6,143.8,401.6,0c0,78.3-22.5,151.3-61.4,213.1c32.3,51.4,75.8,94.9,127.2,127.2c61.8,38.8,134.9,61.3,213.1,61.3
			L680.5,310.2L680.5,310.2z"/>
		
			<linearGradient id="SVGID_00000016783561352235035330000006255938298618516399_" gradientUnits="userSpaceOnUse" x1="479.665" y1="1.62" x2="479.665" y2="341.76" gradientTransform="matrix(1 0 0 -1 0 682)">
			<stop  offset="0" style="stop-color:#525252"/>
			<stop  offset="1" style="stop-color:#212121"/>
		</linearGradient>
		<path style="fill:url(#SVGID_00000016783561352235035330000006255938298618516399_);" d="M680.5,401.5
			c-143.8,0-262.6,109.4-277.3,249.4c-1.8,16.8-16,29.5-32.9,29.5h-91.4c0-78.2,22.5-151.3,61.4-213
			c32.3-51.4,75.8-94.9,127.2-127.1C529.2,379.1,602.2,401.5,680.5,401.5"/>
		
			<linearGradient id="SVGID_00000045604359183086227270000015295930589100386700_" gradientUnits="userSpaceOnUse" x1="0" y1="202.38" x2="340.22" y2="202.38" gradientTransform="matrix(1 0 0 -1 0 682)">
			<stop  offset="0" style="stop-color:#8F8F8F"/>
			<stop  offset="1" style="stop-color:#000000"/>
		</linearGradient>
		<path style="fill:url(#SVGID_00000045604359183086227270000015295930589100386700_);" d="M213.1,340.2
			c51.4,32.2,94.9,75.7,127.2,127.1c-38.8,61.8-61.4,134.9-61.4,213c0-143.8-109.4-262.6-249.4-277.3C12.7,401.3,0,387,0,370.1
			v-91.3C78.2,278.9,151.3,301.3,213.1,340.2"/>
	</g>
</g>
</svg>
